<svg id="Ebene_1" data-name="Ebene 1" xmlns="http://www.w3.org/2000/svg" viewBox="0 0 321.73 45.35"><defs><style>.cls-1{fill:#1d1d1b;}.cls-2{fill:#0053a1;}.cls-3{fill:none;}</style></defs><title>TH_Nuernberg_CMYK_Vektor</title><path class="cls-1" d="M197.45,436.6h-4.31v.91h3.46c0,2.39-1.27,4.14-3.52,4.14-2.69,0-3.83-2.5-3.83-5s1.14-5,3.83-5a3.27,3.27,0,0,1,3.27,2.83h1a4.1,4.1,0,0,0-4.24-3.75c-3.2,0-4.79,2.8-4.79,5.88s1.59,5.88,4.79,5.88a3.63,3.63,0,0,0,3.52-2.29h0l.13,2.05h.7V436.6Zm1.87,5.74h7.08v-.91h-6.12V437h5.66v-.92h-5.66V432h6v-.92h-7v11.29Zm7.9-5.64c0,3.08,1.59,5.88,4.79,5.88s4.78-2.8,4.78-5.88-1.59-5.88-4.78-5.88-4.79,2.8-4.79,5.88Zm1,0c0-2.47,1.14-5,3.83-5s3.81,2.5,3.81,5-1.14,5-3.81,5-3.83-2.5-3.83-5Zm10.12,5.64h1v-5h3.67c1.84-.08,2,1.68,2,3.26a4.92,4.92,0,0,0,.27,1.75h1.07c-.43-.57-.43-2.12-.47-2.89-.07-1.34-.45-2.36-1.78-2.54v0a2.68,2.68,0,0,0,2-2.88,2.79,2.79,0,0,0-3.09-2.94h-4.65v11.29Zm1-10.37h3.62a2,2,0,0,1,2.19,2.25,2.12,2.12,0,0,1-2.19,2.2h-3.62V432Zm17.2,4.63h-4.31v.91h3.46c0,2.39-1.27,4.14-3.52,4.14-2.69,0-3.83-2.5-3.83-5s1.14-5,3.83-5a3.27,3.27,0,0,1,3.27,2.83h1a4.1,4.1,0,0,0-4.24-3.75c-3.2,0-4.79,2.8-4.79,5.88s1.59,5.88,4.79,5.88a3.63,3.63,0,0,0,3.52-2.29h0l.13,2.05h.7V436.6Zm5.31,2c-.11,2.75,1.65,4,4.05,4,3.6,0,3.88-2.45,3.88-3.22,0-1.85-1.19-2.54-2.63-3l-2.48-.68c-.83-.22-1.54-.67-1.54-1.73,0-1.68,1.22-2.25,2.55-2.25a2.6,2.6,0,0,1,2.78,2.59h1a3.45,3.45,0,0,0-3.76-3.51,3.14,3.14,0,0,0-3.5,3.18,2.64,2.64,0,0,0,2.29,2.72l2.26.62c.94.26,2.09.76,2.09,2,0,1.64-1.62,2.29-2.69,2.29-1.85,0-3.36-.71-3.32-3Zm9.55,3.71h1V431.06h-1v11.29Zm3.06,0h1v-9.75h0l3.49,9.75h.91l3.47-9.75h0v9.75h1V431.06h-1.42l-3.5,9.9-3.52-9.9h-1.42v11.29Zm11.34-5.64c0,3.08,1.59,5.88,4.79,5.88s4.78-2.8,4.78-5.88-1.59-5.88-4.78-5.88-4.79,2.8-4.79,5.88Zm1,0c0-2.47,1.14-5,3.83-5s3.81,2.5,3.81,5-1.14,5-3.81,5-3.83-2.5-3.83-5Zm10.1,5.64h1v-9.55h0l5.92,9.55h1.08V431.06h-1v9.55h0l-5.92-9.55h-1.08v11.29Zm13.45-5.64c0,3.08,1.59,5.88,4.79,5.88s4.78-2.8,4.78-5.88-1.59-5.88-4.78-5.88-4.79,2.8-4.79,5.88Zm1,0c0-2.47,1.14-5,3.83-5s3.81,2.5,3.81,5-1.14,5-3.81,5-3.83-2.5-3.83-5Zm10.12,5.64h1v-5.47h6v5.47h1V431.06h-1V436h-6v-4.9h-1v11.29Zm10,0h1v-9.75h0l3.49,9.75h.91l3.47-9.75h0v9.75h1V431.06h-1.42l-3.5,9.9-3.52-9.9h-1.42v11.29Z" transform="translate(-136 -398.89)"/><path class="cls-1" d="M187.86,416.82H191v9.58h1.74v-9.58h3.16v-1.71h-8v1.71ZM197,426.4h7.25V424.7h-5.51v-3.31h5v-1.61h-5v-3h5.41v-1.71H197V426.4Zm17.14-7.7a4,4,0,0,0-4.21-3.86c-3,0-4.76,2.69-4.76,5.91s1.78,5.91,4.76,5.91c2.41,0,4.09-1.86,4.23-4.57h-1.7c-.14,1.64-1,3-2.53,3-2.13,0-3-2.13-3-4.3s.89-4.3,3-4.3a2.47,2.47,0,0,1,2.48,2.25Zm1.49,7.7h1.74v-5.09h4.52v5.09h1.74V415.12h-1.74v4.49h-4.52v-4.49h-1.74V426.4Zm9.95,0h1.65v-8.3h0l4.52,8.3h1.84V415.12H232v8.31h0l-4.54-8.31h-1.83V426.4Zm10,0h1.74V415.12H235.6V426.4Zm3.2-3.76a3.79,3.79,0,0,0,4.14,4c2,0,4-1,4-3.54a3,3,0,0,0-1.93-2.88c-.51-.18-2.71-.82-2.87-.87a1.46,1.46,0,0,1-1.18-1.45c0-1.14,1-1.47,1.82-1.47a1.91,1.91,0,0,1,2.14,2h1.74a3.51,3.51,0,0,0-3.81-3.6,3.34,3.34,0,0,0-3.63,3.32,2.8,2.8,0,0,0,2.2,2.86c1.36.43,2.27.63,3,.93a1.34,1.34,0,0,1,.82,1.39c0,.85-.57,1.71-2.1,1.71a2.25,2.25,0,0,1-2.52-2.42Zm18-3.94a4,4,0,0,0-4.21-3.86c-3,0-4.76,2.69-4.76,5.91s1.78,5.91,4.76,5.91c2.41,0,4.09-1.86,4.23-4.57h-1.7c-.14,1.64-1,3-2.53,3-2.13,0-3-2.13-3-4.3s.89-4.3,3-4.3a2.47,2.47,0,0,1,2.48,2.25Zm1.49,7.7H260v-5.09h4.52v5.09h1.74V415.12h-1.74v4.49H260v-4.49h-1.74V426.4Zm10,0h7.25V424.7H270v-3.31h5v-1.61h-5v-3h5.41v-1.71H268.3V426.4Zm12.45,0h1.74v-5.09H287v5.09h1.74V415.12H287v4.49h-4.52v-4.49h-1.74V426.4ZM295,414.85c-3,0-4.76,2.69-4.76,5.91s1.78,5.91,4.76,5.91,4.76-2.69,4.76-5.91-1.78-5.91-4.76-5.91Zm0,1.61c2.13,0,3,2.13,3,4.3s-.89,4.3-3,4.3-3-2.13-3-4.3.89-4.3,3-4.3Zm14.72,2.25a4,4,0,0,0-4.21-3.86c-3,0-4.76,2.69-4.76,5.91s1.78,5.91,4.76,5.91c2.41,0,4.09-1.86,4.23-4.57H308c-.14,1.64-1,3-2.53,3-2.13,0-3-2.13-3-4.3s.89-4.3,3-4.3A2.47,2.47,0,0,1,308,418.7Zm1.49,7.7h1.74v-5.09h4.52v5.09h1.74V415.12h-1.74v4.49h-4.52v-4.49H311.2V426.4Zm9.42-3.76a3.79,3.79,0,0,0,4.14,4c2,0,4-1,4-3.54a3,3,0,0,0-1.93-2.88c-.51-.18-2.71-.82-2.87-.87a1.46,1.46,0,0,1-1.18-1.45c0-1.14,1-1.47,1.82-1.47a1.91,1.91,0,0,1,2.14,2h1.74a3.51,3.51,0,0,0-3.81-3.6,3.34,3.34,0,0,0-3.63,3.32,2.8,2.8,0,0,0,2.2,2.86c1.36.43,2.27.63,3,.93a1.34,1.34,0,0,1,.82,1.39c0,.85-.57,1.71-2.1,1.71a2.25,2.25,0,0,1-2.52-2.42Zm18-3.94a4,4,0,0,0-4.21-3.86c-3,0-4.76,2.69-4.76,5.91s1.78,5.91,4.76,5.91c2.41,0,4.09-1.86,4.23-4.57h-1.7c-.14,1.64-1,3-2.53,3-2.13,0-3-2.13-3-4.3s.89-4.3,3-4.3a2.47,2.47,0,0,1,2.48,2.25Zm1.49,7.7h1.74v-5.09h4.52v5.09h1.74V415.12h-1.74v4.49h-4.52v-4.49H340.1V426.4Zm9.91-4.06c0,2.89,1.63,4.33,4.08,4.33s4.08-1.44,4.08-4.33v-7.23h-1.74v6.58c0,1.52-.08,3.27-2.34,3.27s-2.34-1.75-2.34-3.27v-6.58H350v7.23Zm10.09,4.06h6.79V424.7h-5.05v-9.58h-1.74V426.4Zm7.92,0h7.25V424.7h-5.51v-3.31h5v-1.61h-5v-3h5.41v-1.71H368V426.4Zm12.42,0h1.65v-8.3h0l4.52,8.3h1.83V415.12h-1.65v8.31h0l-4.54-8.31h-1.83V426.4Zm14.43-14.29v1.71h1.59v-1.71Zm-.81,1.71v-1.71h-1.58v1.71Zm-3.68,8.52c0,2.89,1.63,4.33,4.07,4.33s4.08-1.44,4.08-4.33v-7.23h-1.74v6.58c0,1.52-.08,3.27-2.34,3.27s-2.34-1.75-2.34-3.27v-6.58h-1.74v7.23Zm11.82-5.61H405c.9,0,1.73.28,1.73,1.72a1.57,1.57,0,0,1-1.7,1.8h-2.85v-3.53Zm-1.74,9.68h1.74v-4.65h2.56c1.6,0,2,.92,2,3a3.54,3.54,0,0,0,.26,1.66h1.86a5.7,5.7,0,0,1-.54-3c0-1.79-.88-2.29-1.47-2.39v0a2.71,2.71,0,0,0,1.64-2.85c0-1.91-1.11-3.05-3.28-3.05h-4.74V426.4Zm9.66,0h1.65v-8.3h0l4.52,8.3h1.83V415.12h-1.65v8.31h0l-4.54-8.31h-1.83V426.4Zm11.78-5.14H425a1.55,1.55,0,0,1,1.67,1.74,1.58,1.58,0,0,1-1.67,1.79h-3.08v-3.53Zm-1.74,5.14h4.56c2.57,0,3.66-1.37,3.66-3.15,0-1.53-.65-2.61-1.86-2.91v0a2.5,2.5,0,0,0,1.42-2.4c0-1.88-1.17-2.8-2.95-2.8h-4.83V426.4Zm1.74-9.68h2.84c.95,0,1.46.41,1.46,1.55a1.42,1.42,0,0,1-1.46,1.57h-2.84v-3.12Zm8,9.68h7.25V424.7h-5.51v-3.31h5v-1.61h-5v-3H437v-1.71h-7.15V426.4Zm10.43-9.68h2.83c.9,0,1.72.28,1.72,1.72,0,1.19-.6,1.8-1.7,1.8h-2.85v-3.53Zm-1.74,9.68h1.74v-4.65h2.56c1.6,0,2,.92,2,3a3.51,3.51,0,0,0,.27,1.66H447a5.72,5.72,0,0,1-.54-3c0-1.79-.87-2.29-1.47-2.39v0a2.71,2.71,0,0,0,1.64-2.85c0-1.91-1.11-3.05-3.28-3.05h-4.74V426.4ZM457,420.46h-4.23V422h2.64c0,1.91-1,3.13-2.78,3.1-2.13,0-3-2.14-3-4.3s.89-4.3,3-4.3a2.45,2.45,0,0,1,2.56,2.25h1.7a4.06,4.06,0,0,0-4.26-3.86c-3,0-4.76,2.69-4.76,5.91s1.78,5.91,4.76,5.91a3.43,3.43,0,0,0,3-1.59l.27,1.33H457v-5.94Z" transform="translate(-136 -398.89)"/><polygon class="cls-2" points="0 0 43.45 0 43.45 22.84 35.38 31.97 43.45 31.98 43.45 43.45 23.59 43.44 23.59 8.99 19.86 8.99 19.86 43.44 0 43.44 0 31.98 8.07 31.98 0 22.84 0 0 0 0"/><rect class="cls-3" width="321.73" height="45.35"/></svg>